<svg width="20" height="22" viewBox="0 0 20 22" fill="none" xmlns="http://www.w3.org/2000/svg">
<path d="M17.4816 9.50006C17.4891 7.52163 16.7116 5.62098 15.3197 4.215C13.9278 2.80901 12.035 2.01246 10.0566 2.00006H10.0004C9.0167 2.00129 8.04289 2.19626 7.13455 2.57384C6.22622 2.95142 5.40115 3.50421 4.70645 4.20065C4.01175 4.89708 3.46103 5.72354 3.08573 6.63281C2.71043 7.54209 2.5179 8.51638 2.51913 9.50006C2.51913 12.7157 1.85351 14.5344 1.30038 15.4907C1.16739 15.7196 1.09655 15.9794 1.09491 16.2441C1.09326 16.5089 1.16086 16.7695 1.291 17.0001C1.42226 17.2293 1.6121 17.4196 1.84108 17.5514C2.07006 17.6832 2.32994 17.7517 2.59413 17.7501H6.25038C6.25038 18.7446 6.64547 19.6985 7.34873 20.4017C8.05199 21.105 9.00582 21.5001 10.0004 21.5001C10.9949 21.5001 11.9488 21.105 12.652 20.4017C13.3553 19.6985 13.7504 18.7446 13.7504 17.7501H17.4066C17.6708 17.7517 17.9307 17.6832 18.1597 17.5514C18.3887 17.4196 18.5785 17.2293 18.7098 17.0001C18.8399 16.7695 18.9075 16.5089 18.9058 16.2441C18.9042 15.9794 18.8334 15.7196 18.7004 15.4907C18.1473 14.5344 17.4816 12.7157 17.4816 9.50006ZM10.0004 20.0001C9.4044 19.9976 8.83354 19.7598 8.41212 19.3383C7.99069 18.9169 7.75285 18.346 7.75038 17.7501H12.2504C12.2479 18.346 12.0101 18.9169 11.5886 19.3383C11.1672 19.7598 10.5964 19.9976 10.0004 20.0001ZM19.0848 5.87194C18.9813 5.91802 18.8698 5.94349 18.7566 5.94694C18.6156 5.94817 18.4772 5.90912 18.3576 5.83439C18.2381 5.75966 18.1423 5.65235 18.0816 5.52506C17.3412 4.03525 16.2063 2.77709 14.8004 1.88756C14.7167 1.83524 14.6441 1.76694 14.5867 1.68656C14.5294 1.60618 14.4885 1.5153 14.4663 1.41911C14.4441 1.32291 14.4411 1.22329 14.4574 1.12592C14.4737 1.02855 14.509 0.935344 14.5613 0.851627C14.6136 0.767909 14.6819 0.695317 14.7623 0.637995C14.8427 0.580673 14.9336 0.539745 15.0298 0.517546C15.126 0.495347 15.2256 0.492312 15.323 0.508615C15.4203 0.524919 15.5135 0.560241 15.5973 0.612564C17.2427 1.64868 18.5671 3.12246 19.4223 4.86881C19.5101 5.04666 19.5239 5.25206 19.4606 5.44006C19.3974 5.62806 19.2622 5.78335 19.0848 5.87194ZM1.24413 5.94694C1.13092 5.94349 1.01947 5.91802 0.916005 5.87194C0.738534 5.78335 0.603384 5.62806 0.540132 5.44006C0.47688 5.25206 0.490677 5.04666 0.578505 4.86881C1.43362 3.12246 2.75807 1.64868 4.40351 0.612564C4.57258 0.506892 4.77671 0.472713 4.97098 0.517546C5.06718 0.539745 5.15806 0.580673 5.23844 0.637995C5.31882 0.695317 5.38712 0.767909 5.43944 0.851627C5.49177 0.935344 5.52709 1.02855 5.54339 1.12592C5.55969 1.22329 5.55666 1.32291 5.53446 1.41911C5.51226 1.5153 5.47133 1.60618 5.41401 1.68656C5.35669 1.76694 5.2841 1.83524 5.20038 1.88756C3.79449 2.77709 2.65955 4.03525 1.91913 5.52506C1.85845 5.65235 1.7627 5.75966 1.64312 5.83439C1.52355 5.90912 1.38513 5.94817 1.24413 5.94694Z" fill="white"/>
</svg>
