<svg width="321" height="239" viewBox="0 0 321 239" fill="none" xmlns="http://www.w3.org/2000/svg">
<path d="M320.75 209.652H0.573242V209.812H320.75V209.652Z" fill="#EBEBEB"/>
<path d="M152.336 181.092H28.6901C27.7214 181.09 26.793 180.704 26.1087 180.019C25.4244 179.333 25.04 178.404 25.04 177.435V3.6244C25.0485 2.66132 25.4365 1.74047 26.12 1.06185C26.8034 0.383225 27.7269 0.0016498 28.6901 0H152.336C153.306 0 154.236 0.385229 154.921 1.07094C155.607 1.75665 155.992 2.68667 155.992 3.65642V177.435C155.992 178.405 155.607 179.335 154.921 180.021C154.236 180.707 153.306 181.092 152.336 181.092ZM28.6901 0.128071C27.7639 0.129767 26.8762 0.498877 26.2219 1.15438C25.5676 1.80989 25.2001 2.69822 25.2001 3.6244V177.435C25.2001 178.362 25.5676 179.25 26.2219 179.905C26.8762 180.561 27.7639 180.93 28.6901 180.932H152.336C153.263 180.93 154.151 180.561 154.806 179.906C155.462 179.251 155.83 178.362 155.832 177.435V3.6244C155.83 2.69763 155.462 1.80931 154.806 1.15399C154.151 0.498669 153.263 0.129764 152.336 0.128071H28.6901Z" fill="#EBEBEB"/>
<path d="M290.853 181.092H167.2C166.231 181.09 165.302 180.704 164.617 180.019C163.931 179.334 163.546 178.405 163.544 177.435V3.6244C163.554 2.66074 163.944 1.73989 164.628 1.06144C165.312 0.383001 166.237 0.00163181 167.2 0H290.853C291.815 0.00333272 292.736 0.385652 293.419 1.06409C294.101 1.74253 294.488 2.66243 294.496 3.6244V177.435C294.496 178.403 294.113 179.331 293.43 180.016C292.747 180.702 291.82 181.088 290.853 181.092ZM167.2 0.128071C166.274 0.129764 165.385 0.498669 164.73 1.15399C164.075 1.80931 163.706 2.69763 163.704 3.6244V177.435C163.706 178.362 164.075 179.251 164.73 179.906C165.385 180.561 166.274 180.93 167.2 180.932H290.853C291.779 180.93 292.668 180.561 293.323 179.906C293.978 179.251 294.347 178.362 294.349 177.435V3.6244C294.347 2.69763 293.978 1.80931 293.323 1.15399C292.668 0.498669 291.779 0.129764 290.853 0.128071H167.2Z" fill="#EBEBEB"/>
<path d="M288.668 215.748H268.452V215.908H288.668V215.748Z" fill="#EBEBEB"/>
<path d="M215.308 214.012H193.914V214.173H215.308V214.012Z" fill="#EBEBEB"/>
<path d="M294.508 221.697H254.53V221.857H294.508V221.697Z" fill="#EBEBEB"/>
<path d="M46.48 220.621H34.166V220.781H46.48V220.621Z" fill="#EBEBEB"/>
<path d="M71.5828 220.621H52.1865V220.781H71.5828V220.621Z" fill="#EBEBEB"/>
<path d="M156.908 217.919H121.971V218.079H156.908V217.919Z" fill="#EBEBEB"/>
<path d="M174.916 40.4257L138.429 76.9194V198.452H266.493V40.4257H174.916Z" fill="white"/>
<path d="M266.494 198.798H138.423C138.331 198.798 138.243 198.761 138.178 198.696C138.114 198.632 138.077 198.544 138.077 198.452V76.9193C138.077 76.8739 138.086 76.829 138.104 76.7872C138.121 76.7454 138.147 76.7076 138.18 76.6759L174.68 40.1758C174.745 40.1125 174.832 40.076 174.923 40.0734H266.494C266.539 40.0734 266.584 40.0823 266.626 40.0997C266.668 40.1171 266.706 40.1425 266.738 40.1746C266.77 40.2068 266.796 40.2449 266.813 40.2868C266.83 40.3288 266.839 40.3737 266.839 40.4192V198.452C266.839 198.497 266.83 198.542 266.813 198.584C266.796 198.626 266.77 198.664 266.738 198.696C266.706 198.729 266.668 198.754 266.626 198.771C266.584 198.789 266.539 198.798 266.494 198.798ZM138.775 198.113H266.148V40.7713H175.064L138.775 77.0602V198.113Z" fill="#E0E0E0"/>
<path d="M138.429 76.9194L176.715 81.8565L174.916 40.4257L138.429 76.9194Z" fill="#E6E6E6"/>
<path d="M138.429 76.9194H174.916V40.4257L138.429 76.9194Z" fill="white"/>
<path d="M174.915 77.2587H138.415C138.347 77.2591 138.28 77.2392 138.223 77.2016C138.166 77.164 138.121 77.1103 138.095 77.0474C138.068 76.9851 138.062 76.9161 138.075 76.8497C138.089 76.7834 138.123 76.7228 138.172 76.676L174.672 40.1759C174.721 40.1284 174.783 40.096 174.85 40.0824C174.916 40.0688 174.986 40.0746 175.05 40.0991C175.112 40.1263 175.165 40.171 175.203 40.2279C175.24 40.2847 175.26 40.3512 175.261 40.4192V76.9194C175.259 77.01 175.222 77.0963 175.157 77.1597C175.093 77.2232 175.006 77.2588 174.915 77.2587ZM139.26 76.5736H174.576V41.2581L139.26 76.5736Z" fill="#E0E0E0"/>
<path d="M209.866 129.473L231.638 107.701C232.125 107.215 232.511 106.637 232.774 106.002C233.037 105.366 233.173 104.685 233.173 103.997C233.173 103.309 233.037 102.627 232.774 101.992C232.511 101.356 232.125 100.779 231.638 100.292C231.152 99.8058 230.574 99.4199 229.939 99.1566C229.303 98.8933 228.622 98.7578 227.934 98.7578C227.246 98.7578 226.565 98.8933 225.929 99.1566C225.294 99.4199 224.716 99.8058 224.23 100.292L202.458 122.064L180.685 100.292C179.703 99.3098 178.37 98.7578 176.981 98.7578C175.592 98.7578 174.259 99.3098 173.277 100.292C172.294 101.275 171.742 102.607 171.742 103.997C171.742 105.386 172.294 106.719 173.277 107.701L195.049 129.473L173.277 151.245C172.294 152.228 171.742 153.56 171.742 154.95C171.742 156.339 172.294 157.672 173.277 158.654C174.259 159.637 175.592 160.188 176.981 160.188C178.37 160.188 179.703 159.637 180.685 158.654L202.458 136.882L224.23 158.654C225.212 159.637 226.545 160.188 227.934 160.188C229.323 160.188 230.656 159.637 231.638 158.654C232.621 157.672 233.173 156.339 233.173 154.95C233.173 153.56 232.621 152.228 231.638 151.245L209.866 129.473Z" fill="#F0F0F0"/>
<path d="M143.372 111.422C142.144 112.649 140.479 113.338 138.742 113.338C137.006 113.338 135.341 112.649 134.113 111.422L113.103 90.4051L122.362 81.1456L143.372 102.188C144.591 103.415 145.276 105.075 145.276 106.805C145.276 108.535 144.591 110.194 143.372 111.422Z" fill="#F0F0F0"/>
<path d="M113.1 90.4459L122.359 81.1862L123.215 82.042C124.103 82.9295 124.601 84.1331 124.601 85.3882C124.601 86.6432 124.103 87.8469 123.215 88.7343L120.648 91.3017C119.76 92.1892 118.557 92.6877 117.302 92.6877C116.047 92.6877 114.843 92.1892 113.955 91.3017L113.1 90.4459Z" fill="#E0E0E0"/>
<path d="M54.8177 22.8671C48.4639 29.2274 44.1384 37.3285 42.3878 46.1466C40.6373 54.9647 41.5403 64.1039 44.9828 72.4088C48.4253 80.7138 54.2527 87.8118 61.7284 92.8055C69.2041 97.7992 77.9925 100.465 86.9827 100.465C95.9729 100.465 104.761 97.7992 112.237 92.8055C119.713 87.8118 125.54 80.7138 128.983 72.4088C132.425 64.1039 133.328 54.9647 131.577 46.1466C129.827 37.3285 125.501 29.2274 119.148 22.8671C114.925 18.6404 109.911 15.2874 104.392 12.9996C98.873 10.7119 92.9571 9.53442 86.9827 9.53442C81.0082 9.53442 75.0924 10.7119 69.5733 12.9996C64.0542 15.2874 59.0402 18.6404 54.8177 22.8671ZM116.522 84.5715C110.68 90.4131 103.238 94.3913 95.1351 96.0029C87.0325 97.6146 78.6339 96.7874 71.0015 93.6258C63.369 90.4643 56.8454 85.1105 52.2557 78.2415C47.6659 71.3724 45.2162 63.2966 45.2162 55.0353C45.2162 46.7739 47.6659 38.6981 52.2557 31.829C56.8454 24.96 63.369 19.6062 71.0015 16.4447C78.6339 13.2832 87.0325 12.4559 95.1351 14.0676C103.238 15.6792 110.68 19.6574 116.522 25.499C120.401 29.3777 123.478 33.9825 125.577 39.0503C127.676 44.1181 128.757 49.5498 128.757 55.0353C128.757 60.5207 127.676 65.9524 125.577 71.0202C123.478 76.0881 120.401 80.6928 116.522 84.5715Z" fill="#E0E0E0"/>
<path d="M110.88 80.4605C110.58 80.4597 110.286 80.3699 110.036 80.2024C109.786 80.0349 109.591 79.7972 109.476 79.5191C109.361 79.2411 109.331 78.9353 109.389 78.6401C109.448 78.345 109.592 78.0737 109.805 77.8606C115.847 71.8011 119.241 63.5928 119.241 55.0352C119.241 46.4777 115.847 38.2694 109.805 32.2099C109.649 32.0719 109.524 31.9037 109.436 31.7155C109.348 31.5273 109.3 31.3231 109.294 31.1155C109.288 30.9079 109.324 30.7013 109.401 30.5082C109.477 30.3152 109.592 30.1399 109.739 29.993C109.886 29.8462 110.062 29.7309 110.255 29.6542C110.448 29.5776 110.654 29.5412 110.862 29.5473C111.069 29.5534 111.274 29.6019 111.462 29.6897C111.65 29.7776 111.818 29.903 111.956 30.0583C118.569 36.6872 122.283 45.6685 122.283 55.032C122.283 64.3956 118.569 73.3769 111.956 80.0058C111.816 80.1486 111.648 80.2623 111.464 80.3403C111.279 80.4183 111.081 80.4591 110.88 80.4605Z" fill="#E0E0E0"/>
<path d="M54.0933 64.3749C53.7506 64.3752 53.4179 64.2596 53.1494 64.0468C52.8808 63.834 52.6921 63.5366 52.614 63.203C51.5064 58.5124 51.3667 53.6453 52.2035 48.8988C53.0403 44.1524 54.8359 39.6265 57.4807 35.5974C57.7032 35.2577 58.0515 35.0204 58.449 34.9375C58.8465 34.8546 59.2606 34.9331 59.6003 35.1556C59.94 35.378 60.1773 35.7263 60.2602 36.1238C60.3431 36.5213 60.2646 36.9355 60.0421 37.2751C57.6206 40.9556 55.9743 45.0909 55.2036 49.4286C54.433 53.7664 54.5541 58.2157 55.5597 62.505C55.6072 62.6993 55.6157 62.9011 55.5847 63.0987C55.5536 63.2964 55.4836 63.4858 55.3788 63.6562C55.274 63.8266 55.1363 63.9744 54.9739 64.0912C54.8115 64.208 54.6275 64.2913 54.4327 64.3364C54.3211 64.3607 54.2074 64.3735 54.0933 64.3749Z" fill="#E0E0E0"/>
<path d="M63.0851 80.4604C62.6813 80.4594 62.2944 80.2982 62.0093 80.0121C59.2663 77.2796 56.9943 74.1118 55.2856 70.6374C55.1973 70.4583 55.1452 70.2635 55.1321 70.0642C55.1191 69.865 55.1455 69.6651 55.2097 69.476C55.2739 69.2869 55.3747 69.1123 55.5064 68.9622C55.6381 68.8121 55.7981 68.6894 55.9772 68.6011C56.1563 68.5128 56.3511 68.4606 56.5504 68.4476C56.7496 68.4345 56.9495 68.4609 57.1386 68.5251C57.3277 68.5893 57.5023 68.6902 57.6524 68.8219C57.8025 68.9535 57.9252 69.1135 58.0135 69.2926C59.5802 72.4657 61.6569 75.3601 64.1609 77.8606C64.4456 78.1462 64.6054 78.5331 64.6054 78.9364C64.6054 79.3396 64.4456 79.7265 64.1609 80.0121C63.8747 80.2964 63.4885 80.4573 63.0851 80.4604Z" fill="#E0E0E0"/>
<path d="M135.709 169.953L141.695 175.939L127.794 189.84C127.083 190.551 126.119 190.95 125.113 190.95C124.108 190.95 123.144 190.551 122.433 189.84L121.803 189.211C121.092 188.5 120.693 187.535 120.693 186.53C120.693 185.525 121.092 184.56 121.803 183.85L135.704 169.949L135.709 169.953Z" fill="#F0F0F0"/>
<path d="M135.718 169.966L141.695 175.943L141.41 176.228C140.765 176.873 139.89 177.235 138.978 177.235C138.066 177.235 137.192 176.873 136.547 176.228L135.424 175.105C134.779 174.46 134.417 173.586 134.417 172.674C134.417 171.762 134.779 170.887 135.424 170.242L135.709 169.957L135.718 169.966Z" fill="#E0E0E0"/>
<path d="M182.658 137.484L168.634 151.501C167.078 153.169 166.23 155.377 166.27 157.658C166.31 159.939 167.235 162.116 168.849 163.728C170.463 165.341 172.64 166.263 174.922 166.301C177.203 166.339 179.41 165.489 181.076 163.93L186.75 158.263C187.944 151.07 186.49 143.687 182.658 137.484Z" fill="#F0F0F0"/>
<path d="M187.94 151.008C187.539 145.203 185.425 139.648 181.865 135.044C178.306 130.441 173.462 126.997 167.945 125.147C162.428 123.297 156.486 123.125 150.871 124.652C145.256 126.18 140.221 129.338 136.401 133.727C132.581 138.117 130.149 143.541 129.412 149.312C128.675 155.084 129.666 160.945 132.26 166.154C134.854 171.362 138.935 175.685 143.986 178.574C149.037 181.463 154.831 182.79 160.636 182.385C168.417 181.844 175.664 178.234 180.784 172.35C185.905 166.466 188.479 158.789 187.94 151.008ZM131.647 154.927C131.276 149.598 132.494 144.278 135.146 139.641C137.799 135.004 141.767 131.257 146.549 128.875C151.331 126.493 156.711 125.583 162.011 126.259C167.31 126.935 172.29 129.168 176.32 132.674C180.351 136.181 183.251 140.804 184.654 145.958C186.057 151.113 185.9 156.568 184.202 161.634C182.505 166.699 179.343 171.147 175.118 174.416C170.892 177.685 165.792 179.627 160.463 179.997C153.317 180.493 146.267 178.131 140.863 173.429C135.459 168.728 132.144 162.073 131.647 154.927Z" fill="#E0E0E0"/>
<path d="M143.616 170.276C141.349 168.312 139.493 165.919 138.154 163.236C136.814 160.552 136.018 157.631 135.81 154.639C135.795 154.507 135.807 154.373 135.846 154.245C135.884 154.118 135.948 154 136.033 153.898C136.118 153.795 136.223 153.712 136.342 153.651C136.46 153.591 136.59 153.555 136.723 153.546C136.855 153.537 136.989 153.555 137.114 153.598C137.24 153.642 137.355 153.711 137.454 153.8C137.552 153.89 137.631 153.999 137.687 154.12C137.742 154.241 137.772 154.371 137.776 154.505C138.168 160.019 140.729 165.153 144.899 168.784C149.068 172.414 154.506 174.245 160.022 173.875C160.281 173.857 160.538 173.943 160.734 174.115C160.93 174.286 161.051 174.528 161.069 174.788C161.086 175.048 161 175.304 160.829 175.5C160.658 175.697 160.416 175.817 160.156 175.835C157.169 176.042 154.17 175.658 151.332 174.704C148.493 173.75 145.871 172.246 143.616 170.276Z" fill="#E0E0E0"/>
<path d="M179.002 147.922C178.856 147.795 178.751 147.628 178.701 147.441C177.93 144.701 176.608 142.146 174.817 139.933C173.026 137.72 170.802 135.895 168.282 134.57C168.062 134.443 167.899 134.236 167.828 133.992C167.756 133.748 167.782 133.486 167.899 133.26C168.017 133.035 168.217 132.863 168.457 132.782C168.698 132.7 168.961 132.714 169.192 132.822C171.95 134.272 174.384 136.27 176.345 138.692C178.305 141.114 179.752 143.91 180.596 146.91C180.631 147.034 180.641 147.164 180.626 147.293C180.61 147.421 180.57 147.545 180.506 147.658C180.442 147.77 180.357 147.869 180.255 147.948C180.153 148.028 180.036 148.086 179.911 148.12C179.755 148.163 179.591 148.168 179.432 148.133C179.274 148.099 179.126 148.026 179.002 147.922Z" fill="#E0E0E0"/>
<path d="M156.429 131.996C156.233 131.822 156.114 131.579 156.096 131.317C156.078 131.058 156.164 130.802 156.334 130.605C156.505 130.408 156.746 130.287 157.005 130.267C159.503 130.094 162.012 130.329 164.433 130.965C164.56 130.998 164.678 131.056 164.782 131.135C164.886 131.214 164.973 131.313 165.039 131.425C165.104 131.538 165.147 131.663 165.165 131.792C165.182 131.921 165.174 132.053 165.141 132.179C165.108 132.305 165.05 132.423 164.971 132.527C164.892 132.631 164.794 132.718 164.681 132.784C164.568 132.849 164.444 132.892 164.314 132.91C164.185 132.928 164.054 132.919 163.928 132.886C161.718 132.302 159.426 132.085 157.146 132.246C156.884 132.259 156.627 132.169 156.429 131.996Z" fill="#E0E0E0"/>
<path d="M160.662 238.57C229.233 238.57 284.82 235.324 284.82 231.321C284.82 227.318 229.233 224.072 160.662 224.072C92.0914 224.072 36.5039 227.318 36.5039 231.321C36.5039 235.324 92.0914 238.57 160.662 238.57Z" fill="#F5F5F5"/>
<path d="M88.8272 58.1952C83.6659 63.3885 92.4388 71.4505 86.6436 75.1518C91.3758 77.5275 107.961 80.5436 112.258 71.2008C109.126 68.7675 111.304 62.7866 108.416 57.0426C104.093 48.5259 83.6659 52.2976 88.8272 58.1952Z" fill="#263238"/>
<path d="M89.2934 58.0607C87.6861 57.7918 82.2495 60.4941 86.2965 67.7493C89.5559 73.6149 86.8408 74.0311 86.8408 74.0311C86.8408 74.0311 90.0426 74.1208 88.1215 69.76C86.0852 65.1046 85.1311 60.2763 89.2934 58.0607Z" fill="#263238"/>
<path d="M127.364 104.128C127.166 103.765 126.833 103.495 126.438 103.375C126.043 103.256 125.617 103.296 125.251 103.487L124.873 103.686C124.751 103.75 124.521 103.904 124.335 104.013C124.149 104.121 123.932 104.243 123.727 104.345C123.323 104.549 122.906 104.724 122.478 104.871C121.686 105.157 120.854 105.315 120.013 105.338C119.24 105.347 118.471 105.224 117.739 104.973C117.275 104.801 116.827 104.586 116.401 104.333C115.85 103.116 115.325 101.887 114.877 100.619C114.333 99.1394 113.852 97.6282 113.43 96.0977C113.007 94.5673 112.636 93.0176 112.328 91.4616C112.168 90.6868 112.027 89.9055 111.899 89.1307L111.726 87.9717C111.669 87.6003 111.618 87.1776 111.586 86.8831V86.755C111.501 85.9058 111.082 85.1252 110.421 84.5848C109.761 84.0444 108.913 83.7885 108.064 83.8734C107.214 83.9583 106.434 84.3771 105.893 85.0376C105.353 85.6981 105.097 86.5462 105.182 87.3953C105.227 87.9396 105.265 88.3559 105.323 88.8105C105.381 89.2652 105.445 89.7006 105.509 90.1425C105.649 91.0261 105.81 91.897 105.989 92.7679C106.345 94.4984 106.794 96.2085 107.334 97.8907C107.583 98.736 107.891 99.5685 108.179 100.407C108.467 101.246 108.819 102.066 109.184 102.879C109.883 104.522 110.676 106.124 111.56 107.675L111.637 107.816C111.867 108.233 112.211 108.575 112.629 108.802C113.84 109.462 115.147 109.925 116.503 110.173C117.896 110.419 119.323 110.388 120.704 110.083C122.653 109.631 124.443 108.66 125.885 107.272C126.122 107.054 126.346 106.83 126.525 106.593C126.704 106.356 126.922 106.132 127.165 105.799C127.353 105.568 127.471 105.288 127.506 104.992C127.542 104.696 127.492 104.397 127.364 104.128Z" fill="#FF8B7B"/>
<path d="M131.621 98.1341H131.435C130.822 98.121 130.215 98.2494 129.659 98.5093C129.104 98.7692 128.616 99.1535 128.234 99.6325L125.141 103.513V106.164C127.625 107.15 130.776 104.493 130.776 104.493L132.37 104.089C132.907 103.955 133.375 103.627 133.684 103.168C133.992 102.709 134.12 102.152 134.042 101.605L133.811 100.049C133.736 99.5202 133.473 99.0362 133.072 98.6848C132.67 98.3334 132.155 98.138 131.621 98.1341Z" fill="#FF8B7B"/>
<path d="M111.501 83.169C113.57 85.2949 113.698 91.6408 113.698 91.6408L105.425 98.3005C105.425 98.3005 102.024 88.8873 103.907 85.5639C105.501 82.7463 108.863 80.4603 111.501 83.169Z" fill="#0DB02B"/>
<g opacity="0.2">
<path d="M111.501 83.169C113.57 85.2949 113.698 91.6408 113.698 91.6408L105.425 98.3005C105.425 98.3005 102.024 88.8873 103.907 85.5639C105.501 82.7463 108.863 80.4603 111.501 83.169Z" fill="white"/>
</g>
<path d="M97.8105 225.833L102.383 226.333L103.01 213.91L98.4381 213.404L97.8105 225.833Z" fill="#FF8B7B"/>
<path d="M103.133 223.349H97.7603C97.652 223.345 97.5466 223.384 97.4665 223.457C97.3864 223.53 97.3379 223.631 97.3313 223.739L96.9727 228.817C96.9726 229.083 97.0763 229.338 97.2618 229.528C97.4472 229.719 97.6996 229.829 97.9652 229.836C100.232 229.836 100.258 229.836 103.088 229.836H110.715C113.058 229.836 113.065 227.46 112.053 227.242C107.5 226.282 105.726 224.95 104.119 223.682C103.837 223.464 103.489 223.347 103.133 223.349Z" fill="#263238"/>
<path opacity="0.2" d="M103.01 213.916L102.684 220.32H98.0859L98.4381 213.41L103.01 213.916Z" fill="black"/>
<path d="M105.476 114.796C105.476 114.796 109.434 147.922 109.434 162.65C106.315 183.141 103.67 219.103 103.67 219.103L97.3438 218.937C97.3438 218.937 94.4686 179.773 97.1325 162.861C93.7194 147.71 89.5059 112.747 89.5059 112.747L105.476 114.796Z" fill="#263238"/>
<path opacity="0.2" d="M93.2769 124.017C92.5229 124.349 91.7913 124.73 91.0869 125.157C91.9578 131.695 93.104 139.924 94.3207 147.518C96.3954 141.268 95.2748 127.526 93.2769 124.017Z" fill="black"/>
<path d="M48.2979 214.301L52.0695 216.932L58.5755 206.328L54.8038 203.696L48.2979 214.301Z" fill="#FF8B7B"/>
<path d="M53.0244 215.543L49.8227 211.233C49.7617 211.145 49.6685 211.084 49.5631 211.064C49.4578 211.043 49.3486 211.065 49.2591 211.124L44.9688 213.878C44.7547 214.035 44.6113 214.271 44.5693 214.533C44.5274 214.796 44.5904 215.064 44.7447 215.28C46.083 217.105 46.1086 217.118 47.7927 219.385C48.8365 220.775 50.9177 223.573 52.3521 225.5C53.7864 227.428 55.6627 225.968 55.2272 225.02C53.3062 220.8 53.3062 218.617 53.3446 216.542C53.3511 216.183 53.2385 215.831 53.0244 215.543Z" fill="#263238"/>
<path opacity="0.2" d="M58.5703 206.328L55.2213 211.797L51.1807 209.594L54.8051 203.696L58.5703 206.328Z" fill="black"/>
<path d="M71.4345 218.745C68.1623 218.745 61.349 218.745 61.2337 213.929C61.144 210.151 65.8186 208.582 69.8528 208.39C70.2998 208.369 70.7467 208.435 71.1678 208.586C71.589 208.738 71.9763 208.97 72.3075 209.271C72.6387 209.572 72.9074 209.935 73.0982 210.34C73.2891 210.745 73.3983 211.183 73.4196 211.63V211.886C77.9917 211.669 80.9502 210.67 82.0324 208.966C84.4721 205.124 79.7975 195.205 75.283 185.619C69.9681 174.342 63.9488 161.567 63.8335 149.33C63.8293 148.883 63.9132 148.439 64.0805 148.024C64.2479 147.609 64.4953 147.231 64.8086 146.912C65.122 146.593 65.4952 146.338 65.9069 146.163C66.3186 145.988 66.7608 145.896 67.2082 145.892C68.1057 145.893 68.9664 146.248 69.604 146.88C70.2416 147.512 70.6048 148.369 70.6149 149.266C70.7173 160.011 76.378 172.069 81.4112 182.712C87.1744 194.994 92.2012 205.605 87.7507 212.616C85.1701 216.74 79.8231 218.745 71.4345 218.745Z" fill="#0DB02B"/>
<path d="M100.411 114.143C100.411 114.143 89.4865 152.001 84.1523 165.73C73.817 183.698 56.6684 211.195 56.6684 211.195L51.1934 207.993C51.1934 207.993 64.0004 176.232 72.6132 161.439C74.9248 146.071 83.6657 111.966 83.6657 111.966L100.411 114.143Z" fill="#263238"/>
<path d="M54.0106 218.636C54.2279 218.996 54.5627 219.269 54.9584 219.411C55.0742 219.438 55.1955 219.433 55.3086 219.396C55.4217 219.359 55.5222 219.291 55.5987 219.199C55.652 219.15 55.6926 219.089 55.7171 219.021C55.7416 218.953 55.7493 218.88 55.7396 218.809C55.6627 218.04 53.6776 217.041 53.2806 216.849C53.2575 216.84 53.2317 216.839 53.2081 216.847C53.1845 216.856 53.1648 216.872 53.1526 216.894C53.1371 216.918 53.1289 216.946 53.1289 216.974C53.1289 217.003 53.1371 217.03 53.1526 217.054C53.3877 217.607 53.675 218.137 54.0106 218.636ZM55.3746 218.636C55.431 218.706 55.4684 218.79 55.4834 218.879C55.4865 218.904 55.4835 218.929 55.4745 218.953C55.4656 218.976 55.4511 218.997 55.4322 219.014C55.3806 219.072 55.3142 219.116 55.24 219.141C55.1657 219.166 55.0862 219.171 55.0096 219.155C54.5869 219.071 54.0298 218.386 53.4919 217.304C54.1894 217.629 54.8261 218.071 55.3746 218.61V218.636Z" fill="#0DB02B"/>
<path d="M53.1208 217.08L53.1592 217.112C53.7996 217.464 55.4645 217.752 55.8295 217.221C55.8907 217.124 55.9205 217.01 55.9148 216.895C55.9091 216.781 55.8681 216.671 55.7975 216.58C55.1571 215.447 53.236 216.779 53.1528 216.836C53.1337 216.852 53.1185 216.871 53.1085 216.894C53.0985 216.916 53.0939 216.94 53.0952 216.965C53.0926 217.005 53.1015 217.045 53.1208 217.08ZM55.5541 216.708C55.5728 216.731 55.5899 216.754 55.6054 216.779C55.6758 216.901 55.6886 216.99 55.6502 217.041C55.4389 217.349 54.2094 217.24 53.4922 216.958C53.9725 216.67 55.0931 216.087 55.5541 216.708Z" fill="#0DB02B"/>
<path d="M106.232 224.405C106.652 224.444 107.072 224.337 107.423 224.104C107.512 224.026 107.578 223.925 107.613 223.812C107.648 223.699 107.651 223.579 107.622 223.464C107.613 223.392 107.587 223.322 107.547 223.261C107.507 223.2 107.454 223.149 107.391 223.112C106.751 222.721 104.747 223.714 104.356 223.919C104.334 223.931 104.317 223.95 104.308 223.974C104.298 223.997 104.297 224.023 104.305 224.047C104.315 224.074 104.331 224.098 104.352 224.116C104.373 224.135 104.399 224.149 104.427 224.156C105.018 224.3 105.623 224.384 106.232 224.405ZM107.026 223.298C107.118 223.292 107.209 223.312 107.289 223.355C107.321 223.355 107.353 223.4 107.366 223.477C107.382 223.553 107.378 223.633 107.353 223.708C107.329 223.782 107.284 223.848 107.225 223.9C106.911 224.188 106.027 224.226 104.836 224.015C105.509 223.654 106.239 223.411 106.994 223.298H107.026Z" fill="#0DB02B"/>
<path d="M104.426 224.187H104.471C105.111 223.893 106.36 222.721 106.155 222.113C106.112 222.012 106.041 221.926 105.95 221.866C105.858 221.806 105.752 221.773 105.642 221.773C104.362 221.626 104.272 223.944 104.266 224.04C104.266 224.066 104.272 224.091 104.285 224.113C104.297 224.135 104.315 224.154 104.336 224.168C104.363 224.184 104.395 224.19 104.426 224.187ZM105.578 222.01H105.668C105.802 222.01 105.886 222.068 105.905 222.132C106.027 222.484 105.207 223.413 104.547 223.816C104.605 223.259 104.81 222.01 105.591 222.01H105.578Z" fill="#0DB02B"/>
<path d="M83.666 111.998L105.476 114.79C110.394 98.2301 112.014 90.2321 112.45 86.3836C112.565 85.4163 112.339 84.4391 111.811 83.6207C111.282 82.8023 110.485 82.1941 109.555 81.9011C108.275 81.4913 106.623 81.0046 104.983 80.6204C104.426 80.4731 103.856 80.3386 103.299 80.2106C100.034 79.5481 96.7257 79.1201 93.3994 78.9299C92.9063 78.885 92.4196 78.8594 91.9266 78.8338C90.9596 78.7826 90.0055 78.7698 89.1346 78.7698C88.481 78.769 87.8344 78.9044 87.2359 79.1673C86.6375 79.4302 86.1004 79.8149 85.6588 80.2968C85.2172 80.7787 84.8809 81.3474 84.6712 81.9665C84.4615 82.5855 84.383 83.2415 84.4408 83.8926C84.6137 85.8137 84.7482 87.6003 84.8507 89.2396C85.094 93.0817 85.1709 96.1554 85.1132 98.8449C84.9823 103.261 84.4984 107.659 83.666 111.998Z" fill="#0DB02B"/>
<g opacity="0.3">
<path d="M83.666 111.998L105.476 114.79C110.394 98.2301 112.014 90.2321 112.45 86.3836C112.565 85.4163 112.339 84.4391 111.811 83.6207C111.282 82.8023 110.485 82.1941 109.555 81.9011C108.275 81.4913 106.623 81.0046 104.983 80.6204C104.426 80.4731 103.856 80.3386 103.299 80.2106C100.034 79.5481 96.7257 79.1201 93.3994 78.9299C92.9063 78.885 92.4196 78.8594 91.9266 78.8338C90.9596 78.7826 90.0055 78.7698 89.1346 78.7698C88.481 78.769 87.8344 78.9044 87.2359 79.1673C86.6375 79.4302 86.1004 79.8149 85.6588 80.2968C85.2172 80.7787 84.8809 81.3474 84.6712 81.9665C84.4615 82.5855 84.383 83.2415 84.4408 83.8926C84.6137 85.8137 84.7482 87.6003 84.8507 89.2396C85.094 93.0817 85.1709 96.1554 85.1132 98.8449C84.9823 103.261 84.4984 107.659 83.666 111.998Z" fill="white"/>
</g>
<path opacity="0.3" d="M85.1004 98.8192C87.982 95.0924 89.0258 90.8276 88.0909 88.4775L84.8379 89.2075C85.1004 93.0369 85.1709 96.1234 85.1004 98.8192Z" fill="#0DB02B"/>
<path d="M104.983 80.5819C104.419 80.4346 103.856 80.3002 103.299 80.1721C100.031 79.5127 96.7204 79.0847 93.3923 78.8914C92.8992 78.853 92.4126 78.8273 91.9259 78.8017L91.0742 78.7633L91.7146 79.8839C91.8042 80.0376 93.9814 83.598 99.3988 87.4273L100.558 88.2341L101.672 87.3825C102.745 86.6127 103.622 85.6013 104.231 84.4298C104.841 83.2584 105.166 81.96 105.181 80.6395L104.983 80.5819Z" fill="white"/>
<path d="M95.8003 72.3087C95.5954 75.0046 94.9614 77.7517 93.3926 78.9044C93.3926 78.9044 95.3905 82.2278 100.565 85.8586C103.805 83.3804 103.299 80.1723 103.299 80.1723C99.8537 78.8916 100.097 76.5031 101.551 72.693L98.8612 71.2458C98.6292 70.9901 98.3271 70.8082 97.9925 70.7229C97.6579 70.6375 97.3056 70.6524 96.9794 70.7657C96.6533 70.879 96.3676 71.0856 96.1579 71.36C95.9483 71.6343 95.8239 71.9643 95.8003 72.3087Z" fill="#FF8B7B"/>
<path opacity="0.2" d="M98.8619 71.2456C98.644 71.0048 98.3637 70.829 98.0522 70.7376C97.7406 70.6462 97.4098 70.6427 97.0964 70.7275C96.7829 70.8123 96.499 70.9822 96.2761 71.2183C96.0531 71.4543 95.8998 71.7474 95.833 72.0652C96.8546 74.1251 98.5022 75.8085 100.54 76.8743C100.613 75.4302 100.953 74.0122 101.545 72.6928L98.8619 71.2456Z" fill="black"/>
<path d="M91.6118 63.8561C92.9501 69.0622 93.4047 71.2906 96.5873 73.4614C101.371 76.7528 107.473 73.9737 107.71 68.4795C107.934 63.5295 105.712 55.8453 100.154 54.7439C98.927 54.4931 97.6562 54.5607 96.4628 54.9404C95.2693 55.3201 94.193 55.9991 93.3364 56.9128C92.4799 57.8265 91.8717 58.9444 91.5698 60.1598C91.2678 61.3753 91.2823 62.6478 91.6118 63.8561Z" fill="#FF8B7B"/>
<path d="M104.862 55.8196C101.726 58.6069 98.0065 60.657 93.9756 61.8197C93.9756 61.8197 97.9522 70.2788 90.5113 68.1464C88.3533 60.9424 90.5113 57.2028 92.4323 55.4418C98.3492 53.5207 102.511 52.8804 104.862 55.8196Z" fill="#263238"/>
<path d="M91.3625 68.9852C91.7988 69.9285 92.5908 70.6606 93.5654 71.0216C94.8461 71.4826 95.6081 70.3812 95.3327 69.1005C95.083 67.9543 94.1096 66.3278 92.7713 66.411C92.4818 66.4357 92.203 66.5317 91.9596 66.6903C91.7162 66.849 91.5158 67.0654 91.3764 67.3202C91.2369 67.5751 91.1626 67.8605 91.1602 68.151C91.1578 68.4415 91.2273 68.7281 91.3625 68.9852Z" fill="#FF8B7B"/>
<path d="M83.5053 110.679L82.2694 112.504C82.1734 112.644 82.3335 112.824 82.5832 112.856L105.457 115.789C105.655 115.789 105.828 115.737 105.86 115.616L106.308 113.695C106.308 113.56 106.18 113.426 105.969 113.394L83.8767 110.563C83.8102 110.548 83.7406 110.55 83.6754 110.57C83.6101 110.591 83.5514 110.628 83.5053 110.679Z" fill="#0DB02B"/>
<path d="M86.1501 113.528L85.561 113.451C85.4457 113.451 85.3625 113.362 85.3817 113.291L85.9836 110.787C86.0065 110.745 86.0431 110.712 86.0873 110.694C86.1315 110.675 86.1808 110.672 86.2269 110.685L86.8225 110.762C86.9377 110.762 87.021 110.845 87.0018 110.922L86.3998 113.419C86.3806 113.496 86.2718 113.541 86.1501 113.528Z" fill="#263238"/>
<path d="M103.766 115.782L103.177 115.712C103.062 115.712 102.979 115.622 102.998 115.545L103.6 113.048C103.6 112.977 103.728 112.926 103.843 112.939L104.439 113.016C104.554 113.016 104.637 113.105 104.618 113.176L104.016 115.68C103.997 115.75 103.888 115.801 103.766 115.782Z" fill="#263238"/>
<path d="M94.9612 114.655L94.372 114.578C94.2504 114.578 94.1671 114.495 94.1864 114.418L94.7883 111.921C94.7883 111.844 94.9164 111.799 95.038 111.812L95.6271 111.889C95.7424 111.889 95.8257 111.978 95.8128 112.049L95.2045 114.553C95.1917 114.623 95.0764 114.668 94.9612 114.655Z" fill="#263238"/>
<path d="M100.533 63.6319C100.609 64.0609 100.904 64.3683 101.173 64.3106C101.442 64.253 101.615 63.8688 101.532 63.4398C101.448 63.0107 101.154 62.7033 100.891 62.761C100.629 62.8186 100.469 63.2028 100.533 63.6319Z" fill="#263238"/>
<path d="M105.373 62.7034C105.456 63.1324 105.751 63.4334 106.013 63.3822C106.276 63.3309 106.455 62.9339 106.372 62.5049C106.289 62.0758 105.994 61.7749 105.731 61.8261C105.469 61.8773 105.296 62.2744 105.373 62.7034Z" fill="#263238"/>
<path d="M105.592 61.8774L106.565 61.3779C106.565 61.3779 106.232 62.2872 105.592 61.8774Z" fill="#263238"/>
<path d="M104.093 63.6639C104.665 64.566 105.356 65.3867 106.148 66.1037C105.961 66.303 105.731 66.4586 105.477 66.5593C105.222 66.66 104.949 66.7034 104.675 66.6864L104.093 63.6639Z" fill="#FF5652"/>
<path d="M101.07 68.4153C101.051 68.4376 101.04 68.466 101.039 68.4955C101.038 68.5251 101.048 68.554 101.066 68.5774C101.084 68.6007 101.11 68.6171 101.138 68.6238C101.167 68.6304 101.197 68.6269 101.224 68.6138C101.708 68.367 102.243 68.2383 102.786 68.2383C103.33 68.2383 103.865 68.367 104.349 68.6138C104.378 68.6303 104.412 68.6348 104.444 68.6265C104.477 68.6181 104.504 68.5975 104.522 68.569C104.539 68.5398 104.545 68.505 104.538 68.4717C104.531 68.4385 104.511 68.4091 104.483 68.3897C103.961 68.1222 103.383 67.9827 102.796 67.9827C102.209 67.9827 101.631 68.1222 101.109 68.3897C101.109 68.3897 101.109 68.4025 101.07 68.4153Z" fill="#263238"/>
<path d="M98.8616 62.3127C98.9011 62.2884 98.9324 62.2527 98.9513 62.2103C99.0847 61.9184 99.2855 61.6624 99.537 61.4631C99.7886 61.2639 100.084 61.1271 100.398 61.064C100.432 61.0601 100.465 61.0495 100.494 61.0328C100.524 61.0161 100.55 60.9937 100.571 60.9669C100.592 60.9401 100.607 60.9094 100.616 60.8766C100.625 60.8438 100.627 60.8096 100.623 60.7759C100.619 60.7424 100.61 60.7099 100.594 60.6804C100.578 60.6508 100.556 60.6248 100.529 60.6039C100.503 60.5829 100.473 60.5675 100.44 60.5586C100.408 60.5496 100.374 60.5473 100.341 60.5518C99.9406 60.6265 99.5639 60.7957 99.242 61.0451C98.9202 61.2946 98.6625 61.6172 98.4902 61.9862C98.4653 62.0367 98.4578 62.094 98.4688 62.1492C98.4797 62.2044 98.5086 62.2545 98.5509 62.2917C98.5931 62.3288 98.6465 62.351 98.7027 62.3548C98.7588 62.3587 98.8147 62.3439 98.8616 62.3127Z" fill="#263238"/>
<path d="M106.814 59.0662L106.846 59.0342C106.866 59.0065 106.88 58.9752 106.887 58.9421C106.894 58.9091 106.895 58.8749 106.889 58.8415C106.883 58.8082 106.871 58.7763 106.852 58.7478C106.834 58.7194 106.81 58.6948 106.782 58.6756C106.451 58.4376 106.068 58.2821 105.665 58.222C105.262 58.1619 104.85 58.1988 104.464 58.3298C104.403 58.3567 104.354 58.4062 104.327 58.4682C104.301 58.5301 104.3 58.5998 104.323 58.6628C104.349 58.7255 104.398 58.7756 104.461 58.802C104.523 58.8284 104.594 58.829 104.656 58.8037C104.963 58.7032 105.289 58.6775 105.608 58.7287C105.926 58.78 106.228 58.9066 106.488 59.0982C106.537 59.1332 106.597 59.1493 106.657 59.1434C106.717 59.1375 106.773 59.1101 106.814 59.0662Z" fill="#263238"/>
<path d="M100.769 62.8058L101.742 62.3127C101.742 62.3127 101.364 63.2156 100.769 62.8058Z" fill="#263238"/>
<path d="M67.2406 152.705C66.3427 152.705 65.481 152.351 64.843 151.719C64.205 151.087 63.8424 150.228 63.834 149.33C63.7443 140.237 66.7732 132.559 72.594 127.129C79.7595 120.444 90.9337 117.338 104.074 118.376C113.288 119.106 119.199 116.864 126.038 114.258C127.165 113.836 128.298 113.4 129.464 112.977C130.313 112.668 131.25 112.709 132.069 113.091C132.888 113.473 133.522 114.165 133.831 115.014C134.14 115.863 134.099 116.8 133.717 117.619C133.335 118.438 132.644 119.072 131.795 119.381C130.661 119.791 129.56 120.213 128.465 120.63C121.491 123.281 114.287 126.015 103.536 125.17C92.3297 124.28 82.9933 126.745 77.243 132.111C72.7605 136.261 70.5769 142.03 70.6473 149.266C70.6515 149.714 70.5676 150.157 70.4003 150.572C70.233 150.987 69.9856 151.365 69.6722 151.685C69.3588 152.004 68.9856 152.258 68.5739 152.433C68.1622 152.609 67.72 152.701 67.2727 152.705H67.2406Z" fill="#0DB02B"/>
<path d="M146.027 124.191L132.324 129.211C131.181 129.63 129.918 129.577 128.813 129.065C127.709 128.553 126.853 127.623 126.434 126.479L120.775 111.033C120.356 109.889 120.409 108.626 120.921 107.522C121.433 106.417 122.363 105.561 123.507 105.142L137.21 100.122L146.021 124.173L146.027 124.191Z" fill="#0DB02B"/>
<path opacity="0.7" d="M146.027 124.191L132.324 129.211C131.181 129.63 129.918 129.577 128.813 129.065C127.709 128.553 126.853 127.623 126.434 126.479L120.775 111.033C120.356 109.889 120.409 108.626 120.921 107.522C121.433 106.417 122.363 105.561 123.507 105.142L137.21 100.122L146.021 124.173L146.027 124.191Z" fill="white"/>
<path opacity="0.2" d="M131.103 102.354L137.218 100.119L146.03 124.184L139.914 126.425C139.507 126.031 139.196 125.549 139.005 125.016L131.321 104.019C131.12 103.488 131.045 102.918 131.103 102.354Z" fill="#0DB02B"/>
<path d="M150.952 106.113L150.351 106.333L151.818 110.338L152.419 110.118L150.952 106.113Z" fill="#0DB02B"/>
<path d="M149.423 103.84L147.265 97.9355C146.895 96.9344 146.227 96.0706 145.351 95.4604C144.475 94.8503 143.434 94.5229 142.366 94.5225C141.759 94.5207 141.156 94.6269 140.586 94.8362L136.693 96.2642L136.469 95.6623L140.368 94.2343C141.008 93.9997 141.685 93.8804 142.366 93.8821C143.566 93.8849 144.735 94.2545 145.719 94.9413C146.702 95.6281 147.452 96.5991 147.867 97.7242L150.025 103.628L149.423 103.84Z" fill="#0DB02B"/>
<path d="M146.132 125.916L151.851 123.847C153.719 123.172 154.686 121.109 154.01 119.241L146.248 97.782C145.572 95.9137 143.51 94.947 141.642 95.6228L135.923 97.6911C134.055 98.3669 133.088 100.429 133.764 102.298L141.526 123.756C142.202 125.625 144.264 126.591 146.132 125.916Z" fill="#0DB02B"/>
<path d="M142.86 104.294C142.991 104.651 143.012 105.039 142.922 105.409C142.832 105.778 142.635 106.112 142.355 106.369C142.075 106.626 141.725 106.795 141.349 106.853C140.973 106.911 140.589 106.856 140.244 106.695C139.9 106.535 139.61 106.275 139.413 105.95C139.216 105.625 139.12 105.249 139.137 104.869C139.153 104.489 139.283 104.123 139.508 103.817C139.733 103.51 140.044 103.278 140.401 103.148C140.879 102.975 141.407 102.998 141.867 103.213C142.328 103.428 142.685 103.817 142.86 104.294Z" fill="#263238"/>
<path d="M147.644 117.351C147.774 117.708 147.795 118.095 147.705 118.464C147.615 118.833 147.418 119.167 147.138 119.424C146.858 119.681 146.508 119.849 146.133 119.907C145.758 119.965 145.374 119.911 145.029 119.751C144.685 119.591 144.395 119.332 144.198 119.008C144.001 118.683 143.904 118.307 143.92 117.928C143.936 117.548 144.064 117.182 144.288 116.875C144.512 116.569 144.822 116.335 145.179 116.205C145.416 116.118 145.668 116.079 145.92 116.089C146.172 116.1 146.42 116.16 146.649 116.267C146.878 116.373 147.084 116.524 147.254 116.71C147.425 116.896 147.558 117.114 147.644 117.351Z" fill="#263238"/>
<path d="M91.503 115.808L91.4518 115.75C90.4528 114.751 89.3963 113.663 88.4421 112.549C87.488 111.434 86.5531 110.32 85.7014 109.167C84.8664 108.043 84.107 106.864 83.4282 105.639C82.9424 104.763 82.5291 103.848 82.1923 102.905C82.5765 101.624 82.9863 100.343 83.473 99.1139C84.0301 97.6347 84.6576 96.1811 85.3428 94.7467C86.028 93.3123 86.758 91.9035 87.5456 90.5268C87.9298 89.8352 88.3333 89.15 88.7495 88.4776L89.3898 87.4915C89.5884 87.1713 89.8253 86.8511 89.9918 86.5758L90.0622 86.4733C90.5174 85.7795 90.6854 84.936 90.5309 84.1207C90.3763 83.3054 89.9112 82.5819 89.2337 82.1028C88.5561 81.6237 87.719 81.4264 86.8988 81.5524C86.0786 81.6785 85.3394 82.1181 84.8369 82.7785C84.5168 83.2139 84.2734 83.5597 84.0173 83.9375C83.7611 84.3153 83.5306 84.6932 83.2873 85.071C82.8198 85.8266 82.3652 86.5886 81.9297 87.3634C81.0635 88.9092 80.279 90.4995 79.5796 92.1276C79.221 92.9345 78.9393 93.7606 78.5743 94.5866C78.2093 95.4127 77.966 96.2515 77.7098 97.1096C77.1663 98.8098 76.7194 100.539 76.3715 102.29V102.437C76.2721 102.905 76.3054 103.39 76.4675 103.84C77.088 105.482 77.9119 107.039 78.9201 108.476C79.8694 109.84 80.9273 111.124 82.0834 112.318C83.2096 113.468 84.4051 114.548 85.663 115.552C86.9204 116.554 88.24 117.476 89.614 118.312C89.9476 118.507 90.3409 118.574 90.7202 118.499C91.0995 118.425 91.4388 118.215 91.6744 117.909C91.9101 117.603 92.0259 117.221 92.0003 116.835C91.9746 116.45 91.8092 116.087 91.535 115.814L91.503 115.808Z" fill="#FF8B7B"/>
<path d="M98.9437 118.99L98.8605 118.824C98.5947 118.269 98.2035 117.784 97.7179 117.406C97.2322 117.028 96.6654 116.768 96.0622 116.647L91.2019 115.661L88.8262 116.845C89.0823 119.509 92.886 121.104 92.886 121.104L93.9682 122.34C94.3331 122.754 94.8381 123.019 95.3864 123.084C95.9348 123.149 96.4878 123.009 96.9394 122.692L98.2201 121.776C98.6506 121.472 98.9595 121.026 99.0919 120.516C99.2244 120.006 99.1719 119.465 98.9437 118.99Z" fill="#FF8B7B"/>
<path d="M87.1428 79.1796C84.4469 80.4155 81.5781 84.6931 81.5781 84.6931L87.3413 95.483C87.3413 95.483 93.8921 87.9332 93.3414 84.1552C92.8932 80.947 90.5751 77.6043 87.1428 79.1796Z" fill="#0DB02B"/>
<g opacity="0.3">
<path d="M87.1428 79.1796C84.4469 80.4155 81.5781 84.6931 81.5781 84.6931L87.3413 95.483C87.3413 95.483 93.8921 87.9332 93.3414 84.1552C92.8932 80.947 90.5751 77.6043 87.1428 79.1796Z" fill="white"/>
</g>
<path d="M271.627 220.557C265.986 220.557 260.44 219.398 257.751 215.889C245.021 199.239 245.136 165.749 245.245 133.341C245.309 115.891 246.686 99.402 244.745 86.5949C243.605 79.0452 239.622 73.8647 235.601 71.188C229.633 67.2435 221.436 69.363 217.934 70.2659C217.497 70.3878 217.041 70.4215 216.592 70.3649C216.142 70.3084 215.709 70.1627 215.316 69.9365C214.924 69.7103 214.58 69.4081 214.306 69.0476C214.031 68.687 213.832 68.2754 213.719 67.8367C213.605 67.3981 213.581 66.9413 213.646 66.493C213.711 66.0447 213.866 65.614 214.1 65.226C214.333 64.8381 214.642 64.5006 215.008 64.2335C215.374 63.9664 215.79 63.7749 216.23 63.6703C220.604 62.5369 230.862 59.8922 239.354 65.5017C245.085 69.2862 250.041 76.0419 251.482 85.5768C253.499 98.8961 252.122 115.629 252.058 133.341C251.949 164.609 251.84 196.941 263.162 211.726C264.078 212.917 267.644 213.987 273.568 213.679C274.093 213.679 274.605 213.622 275.111 213.577C274.882 213.113 274.763 212.602 274.765 212.085C274.765 211.181 275.124 210.315 275.763 209.676C276.402 209.037 277.268 208.678 278.172 208.678C285.619 208.678 289.538 209.319 290.294 212.725C290.511 213.705 290.627 216.164 287.028 217.848C284.338 219.11 277.922 220.557 271.627 220.557Z" fill="#0DB02B"/>
<path d="M197.078 223.496L190.13 220.762L193.793 208.717L200.747 211.445L197.078 223.496Z" fill="#FFC3BD"/>
<path d="M189.963 220.025L197.801 223.099C197.9 223.139 197.983 223.212 198.037 223.304C198.09 223.397 198.111 223.505 198.096 223.611L197.327 228.491C197.307 228.609 197.261 228.721 197.192 228.818C197.123 228.916 197.033 228.997 196.929 229.055C196.824 229.114 196.708 229.148 196.589 229.156C196.469 229.163 196.35 229.144 196.239 229.099C194.273 228.286 191.193 226.941 188.702 225.961C187.171 225.359 184.258 224.399 182.138 223.566C180.019 222.734 180.569 220.531 181.498 220.685C185.718 221.364 187.332 220.64 189.016 220.012C189.322 219.895 189.661 219.9 189.963 220.025Z" fill="#263238"/>
<path opacity="0.2" d="M200.747 211.451L193.792 208.717L191.903 214.928L198.858 217.663L200.747 211.451Z" fill="black"/>
<path d="M209.436 118.216C209.436 118.216 203.148 149.298 200.747 164.628C198.044 181.809 190.904 213.193 190.904 213.193L200.145 216.824C200.145 216.824 213.342 184.691 215.18 169.13C220.719 156.483 231.733 119.266 231.733 119.266L209.436 118.216Z" fill="#0DB02B"/>
<path d="M190.457 213.244L200.6 217.233L202.336 214.16L190.995 209.459L190.457 213.244Z" fill="#263238"/>
<path d="M187.971 220.16C187.618 220.05 187.311 219.824 187.101 219.519C187.042 219.407 187.012 219.281 187.012 219.154C187.012 219.027 187.042 218.902 187.101 218.789C187.127 218.72 187.172 218.659 187.23 218.614C187.289 218.568 187.36 218.541 187.434 218.533C188.106 218.463 189.355 220.102 189.476 220.294C189.49 220.315 189.497 220.34 189.497 220.365C189.497 220.39 189.49 220.414 189.476 220.435C189.463 220.456 189.444 220.473 189.421 220.483C189.398 220.493 189.373 220.497 189.348 220.493C188.879 220.432 188.417 220.321 187.971 220.16ZM187.632 218.821C187.58 218.796 187.523 218.785 187.466 218.789C187.427 218.789 187.382 218.789 187.338 218.898C187.295 218.975 187.273 219.061 187.273 219.148C187.273 219.236 187.295 219.321 187.338 219.398C187.523 219.737 188.164 220.038 189.092 220.192C188.702 219.642 188.206 219.176 187.632 218.821Z" fill="#0DB02B"/>
<path d="M189.336 220.486C189.315 220.479 189.297 220.466 189.284 220.448C188.875 219.961 188.298 218.456 188.644 217.938C188.697 217.857 188.777 217.798 188.869 217.768C188.961 217.739 189.06 217.743 189.15 217.778C189.245 217.802 189.334 217.846 189.411 217.906C189.488 217.967 189.552 218.043 189.598 218.13C189.995 218.841 189.547 220.339 189.528 220.403C189.52 220.426 189.507 220.446 189.489 220.462C189.471 220.478 189.449 220.488 189.425 220.493C189.411 220.5 189.395 220.503 189.38 220.502C189.364 220.501 189.349 220.495 189.336 220.486ZM189.118 218.04H189.067C188.9 218.002 188.862 218.04 188.843 218.098C188.65 218.405 188.964 219.494 189.329 220.089C189.512 219.497 189.512 218.863 189.329 218.271C189.289 218.171 189.214 218.089 189.118 218.04Z" fill="#0DB02B"/>
<path opacity="0.2" d="M222.993 137.036C219.51 141.352 218.133 152.353 218.146 161.523C220.496 155.049 223.192 146.827 225.561 139.36L222.993 137.036Z" fill="black"/>
<path d="M238.893 224.655H231.426L230.434 212.104H237.9L238.893 224.655Z" fill="#FFC3BD"/>
<path d="M231.004 224.027H239.425C239.533 224.027 239.637 224.063 239.722 224.131C239.806 224.199 239.864 224.293 239.886 224.399L240.955 229.214C240.98 229.332 240.978 229.454 240.95 229.57C240.921 229.687 240.867 229.796 240.791 229.889C240.715 229.982 240.618 230.056 240.509 230.107C240.4 230.158 240.281 230.183 240.161 230.181C238.035 230.143 234.686 230.015 232.009 230.015C230.357 230.015 227.296 230.188 225.023 230.188C222.75 230.188 222.462 227.94 223.377 227.735C227.559 226.819 228.801 225.564 230.133 224.36C230.373 224.147 230.683 224.029 231.004 224.027Z" fill="#263238"/>
<path opacity="0.2" d="M237.9 212.104H230.427L230.945 218.578H238.418L237.9 212.104Z" fill="black"/>
<path d="M218.478 118.606C218.478 118.606 222.614 153.243 223.485 165.71C224.695 183.064 229.376 217.323 229.376 217.323H239.302C239.302 217.323 240.365 182.334 238.572 166.767C241.044 153.185 240.262 119.65 240.262 119.65L218.478 118.606Z" fill="#0DB02B"/>
<path d="M228.98 217.534H239.879L240.372 214.045L228.097 213.814L228.98 217.534Z" fill="#263238"/>
<path d="M229.178 224.879C228.809 224.907 228.441 224.81 228.134 224.604C228.039 224.52 227.964 224.415 227.918 224.297C227.871 224.179 227.853 224.051 227.865 223.925C227.865 223.85 227.886 223.775 227.926 223.711C227.965 223.647 228.022 223.594 228.089 223.56C228.691 223.253 230.439 224.329 230.651 224.45C230.673 224.463 230.691 224.482 230.702 224.504C230.714 224.527 230.718 224.553 230.715 224.578C230.709 224.604 230.696 224.628 230.678 224.647C230.66 224.666 230.637 224.68 230.612 224.687C230.143 224.805 229.662 224.87 229.178 224.879ZM228.371 223.759C228.314 223.755 228.256 223.766 228.204 223.791C228.172 223.791 228.134 223.842 228.128 223.938C228.114 224.024 228.123 224.112 228.153 224.194C228.184 224.276 228.234 224.349 228.3 224.405C228.595 224.655 229.306 224.687 230.222 224.501C229.664 224.138 229.043 223.886 228.39 223.759H228.371Z" fill="#0DB02B"/>
<path d="M230.587 224.687H230.523C229.966 224.38 228.878 223.195 228.993 222.587C229.012 222.493 229.063 222.408 229.138 222.347C229.213 222.286 229.306 222.253 229.403 222.254C229.5 222.24 229.598 222.247 229.692 222.275C229.786 222.303 229.873 222.35 229.947 222.414C230.587 222.933 230.709 224.495 230.715 224.559C230.717 224.583 230.712 224.606 230.702 224.627C230.692 224.649 230.677 224.667 230.658 224.681C230.635 224.689 230.611 224.691 230.587 224.687ZM229.492 222.491H229.435C229.268 222.491 229.255 222.593 229.249 222.625C229.179 222.977 229.889 223.906 230.427 224.303C230.388 223.684 230.165 223.091 229.787 222.6C229.704 222.531 229.6 222.493 229.492 222.491Z" fill="#0DB02B"/>
<path d="M221.903 70.8423L215.922 70.7655C213.912 70.7655 211.914 70.7014 209.935 70.6694C209.333 70.6694 208.744 70.631 208.148 70.6054C208.187 70.6054 208.213 70.535 208.245 70.5029C208.667 70.0547 209.09 69.5936 209.525 69.1518C209.743 68.9213 209.956 68.6971 210.166 68.4794C210.364 68.2617 210.62 68.0184 210.755 67.8391L211.299 67.1475C211.728 66.6002 211.974 65.9317 212.002 65.2368C212.029 64.542 211.837 63.856 211.453 63.2763C211.069 62.6966 210.512 62.2526 209.862 62.0072C209.211 61.7619 208.5 61.7276 207.828 61.9094L206.644 62.2296C206.279 62.3384 205.914 62.4601 205.549 62.5818C204.831 62.8315 204.127 63.1069 203.429 63.4078C202.023 64.0289 200.663 64.7523 199.363 65.5722C198.016 66.4333 196.741 67.4035 195.553 68.473C194.295 69.6168 193.156 70.8847 192.152 72.2575C191.899 72.6 191.685 72.9694 191.512 73.3589C190.917 74.7219 190.888 76.2652 191.431 77.6497C191.974 79.0342 193.044 80.1465 194.407 80.7422L194.989 80.9983C196.305 81.5645 197.668 82.0144 199.062 82.3431C200.279 82.6568 201.431 82.8617 202.565 83.0539C203.698 83.246 204.806 83.3996 205.907 83.5341C207.009 83.6686 208.097 83.7711 209.186 83.8607C211.357 84.0528 213.508 84.1489 215.653 84.2129C217.799 84.2769 219.899 84.2769 222.127 84.1745C223.865 84.1003 225.505 83.3506 226.698 82.0851C227.891 80.8195 228.543 79.1382 228.514 77.3992C228.486 75.6602 227.78 74.001 226.546 72.775C225.312 71.5491 223.649 70.8533 221.91 70.8359L221.903 70.8423Z" fill="#FFC3BD"/>
<path d="M225.387 82.5288C220.22 88.4201 207.784 86.2173 207.784 86.2173L208.469 71.5404C212.732 70.6023 217.079 70.0981 221.443 70.0355C228.743 70.0227 229.524 77.803 225.387 82.5288Z" fill="#263238"/>
<path d="M211.595 78.0141C211.287 80.3834 210.954 83.5724 210.756 87.8628C208.06 101.502 207.055 111.165 209.437 118.215C211.319 120.54 235.851 120.092 240.263 119.643C242.825 113.304 243.094 95.1052 243.395 79.8071C243.432 77.6991 242.714 75.6473 241.368 74.0237C240.023 72.4002 238.141 71.3123 236.063 70.9574C230.542 69.9789 224.911 69.7891 219.337 70.3939C217.38 70.6165 215.555 71.4879 214.152 72.8691C212.748 74.2502 211.848 76.0616 211.595 78.0141Z" fill="#263238"/>
<path opacity="0.2" d="M235.396 87.325C235.48 91.9867 238.861 99.434 242.664 103.212C242.895 99.2739 243.042 95.0028 243.158 90.6932L235.396 87.325Z" fill="black"/>
<path d="M256.772 96.3859L256.554 95.8736C255.659 93.7376 254.613 91.6683 253.423 89.6814C252.283 87.7603 251.054 85.9481 249.779 84.2C248.505 82.4518 247.154 80.7805 245.771 79.154C245.066 78.3471 244.368 77.5403 243.632 76.759L242.524 75.5936L241.346 74.4026C240.112 73.1839 238.452 72.4937 236.717 72.4783C234.983 72.4629 233.31 73.1235 232.055 74.32C230.799 75.5166 230.059 77.155 229.991 78.8882C229.922 80.6213 230.532 82.3129 231.689 83.6044L231.882 83.8157L235.64 87.9972C236.921 89.4188 238.144 90.866 239.361 92.3068C239.95 93.0304 240.558 93.754 241.109 94.4904C241.66 95.2268 242.242 95.9376 242.793 96.6676C243.587 97.7754 244.356 98.8769 245.041 99.959C244.936 100.505 244.803 101.046 244.644 101.579C244.184 103.13 243.643 104.656 243.024 106.151C242.383 107.733 241.705 109.353 241 110.947C240.296 112.542 239.54 114.207 238.868 115.808L238.804 115.949C238.509 116.656 238.464 117.443 238.677 118.18C238.89 118.917 239.347 119.558 239.975 120C240.602 120.441 241.36 120.655 242.125 120.606C242.891 120.558 243.616 120.25 244.183 119.733C245.595 118.424 246.936 117.039 248.198 115.584C249.478 114.145 250.68 112.629 251.803 111.037C252.373 110.237 252.917 109.404 253.455 108.54C254.014 107.661 254.525 106.752 254.986 105.818C255.504 104.799 255.953 103.747 256.33 102.668C256.822 101.286 257.098 99.8367 257.15 98.371C257.166 97.6899 257.038 97.0132 256.772 96.3859Z" fill="#FFC3BD"/>
<path d="M236.498 71.0408C245.137 72.52 250.765 84.2128 250.765 84.2128L240.353 95.4126C240.353 95.4126 234.353 89.3036 230.748 83.6429C226.861 77.4827 230.312 69.9906 236.498 71.0408Z" fill="#263238"/>
<path d="M220.719 52.605C219.272 50.1781 218.798 46.8418 221.449 43.4416C220.932 43.5063 220.408 43.4198 219.94 43.1924C219.471 42.9651 219.079 42.6067 218.811 42.1608C221.713 39.7859 225.364 38.5155 229.114 38.5749C236.862 38.5749 237.438 41.5653 237.176 43.608C242.478 43.9474 246.346 57.7342 232.905 60.174C225.214 52.0735 220.719 52.605 220.719 52.605Z" fill="#263238"/>
<path d="M236.69 43.8579C236.69 43.8579 238.848 41.6551 236.165 38.9912C236.767 39.1562 237.315 39.4741 237.757 39.914C238.199 40.3538 238.52 40.9007 238.688 41.5014C239.066 43.051 238.022 44.2933 236.69 43.8579Z" fill="#263238"/>
<path d="M233.718 58.4899C233.513 62.7354 233.129 67.5637 233.84 70.9511C232.738 72.6865 229.921 74.6844 224.875 75.1326C223.082 74.1145 220.712 71.6235 221.539 70.3428C223.684 68.9661 224.593 64.7974 223.978 61.6788L233.718 58.4899Z" fill="#FFC3BD"/>
<path opacity="0.2" d="M231.259 59.2903L223.966 61.6788C224.214 63.0069 224.225 64.3684 223.998 65.7002C226.175 65.6298 229.191 63.9905 230.325 62.4536C230.694 62.0216 230.968 61.5166 231.129 60.9715C231.29 60.4265 231.334 59.8536 231.259 59.2903Z" fill="black"/>
<path d="M235.845 51.7662C234.494 56.9723 233.969 60.0908 230.78 62.2744C225.984 65.5594 219.952 61.8774 219.715 56.3768C219.51 51.4204 221.751 43.7362 227.322 42.6412C228.549 42.3952 229.818 42.4669 231.009 42.8495C232.201 43.2321 233.274 43.9129 234.128 44.8272C234.982 45.7415 235.588 46.859 235.889 48.0735C236.189 49.288 236.174 50.5591 235.845 51.7662Z" fill="#FFC3BD"/>
<path d="M234.768 44.3125C232.482 45.939 229.646 52.8292 235.409 55.5955C240.583 51.049 239.245 44.3125 234.768 44.3125Z" fill="#263238"/>
<path d="M236.088 45.1385C237.068 40.6048 225.624 38.2611 222 43.5568C220.771 46.7458 235.396 49.5633 236.088 45.1385Z" fill="#263238"/>
<path d="M227.551 57.2924C226.362 56.7548 225.088 56.4318 223.786 56.3383C223.768 56.3382 223.75 56.3419 223.733 56.3491C223.716 56.3562 223.701 56.3667 223.689 56.3799C223.676 56.3931 223.666 56.4086 223.66 56.4257C223.653 56.4428 223.651 56.4609 223.652 56.4791C223.659 56.5205 223.68 56.5583 223.711 56.5862C223.743 56.6141 223.782 56.6305 223.824 56.6328C225.072 56.723 226.294 57.0307 227.436 57.5421C227.472 57.5579 227.512 57.5593 227.549 57.5463C227.586 57.5332 227.617 57.5065 227.635 57.4717C227.642 57.4545 227.645 57.4361 227.645 57.4175C227.644 57.3989 227.64 57.3806 227.632 57.3638C227.624 57.347 227.613 57.3319 227.599 57.3196C227.585 57.3073 227.569 57.2981 227.551 57.2924Z" fill="#263238"/>
<path d="M237.093 57.4589C236.165 58.4439 234.885 59.0217 233.533 59.0662C231.74 59.1046 231.285 57.3949 232.15 55.9349C232.931 54.6542 234.801 53.0149 236.427 53.668C238.054 54.3212 238.22 56.2358 237.093 57.4589Z" fill="#FFC3BD"/>
<path d="M227.565 51.6765C227.482 52.1055 227.188 52.4129 226.925 52.3553C226.662 52.2976 226.49 51.907 226.573 51.478C226.656 51.0489 226.951 50.748 227.213 50.8376C227.476 50.9273 227.649 51.2282 227.565 51.6765Z" fill="#263238"/>
<path d="M222.718 50.7351C222.635 51.1641 222.34 51.4651 222.077 51.4138C221.815 51.3626 221.636 50.9656 221.719 50.5366C221.802 50.1075 222.097 49.8001 222.359 49.8578C222.622 49.9154 222.775 50.306 222.718 50.7351Z" fill="#263238"/>
<path d="M224.216 51.2283C223.447 52.4402 222.516 53.5412 221.449 54.5005C222.09 55.3521 223.505 55.1856 223.505 55.1856L224.216 51.2283Z" fill="#ED847E"/>
<path d="M226.866 49.1856C226.912 49.1756 226.959 49.1774 227.004 49.1908C227.049 49.2043 227.09 49.2289 227.122 49.2624C227.328 49.5109 227.589 49.7072 227.885 49.8352C228.182 49.9632 228.504 50.0193 228.826 49.9988C228.893 49.9896 228.962 50.0072 229.017 50.0478C229.072 50.0885 229.109 50.149 229.12 50.2165C229.126 50.2499 229.124 50.2839 229.116 50.3167C229.108 50.3495 229.093 50.3802 229.073 50.4072C229.053 50.4341 229.027 50.4566 228.998 50.4734C228.968 50.4902 228.936 50.5008 228.902 50.5047C228.496 50.5374 228.087 50.4726 227.711 50.3155C227.334 50.1585 227.001 49.9138 226.738 49.6018C226.714 49.5785 226.695 49.5507 226.682 49.5199C226.669 49.4891 226.662 49.4559 226.662 49.4225C226.662 49.3891 226.669 49.356 226.682 49.3252C226.695 49.2944 226.714 49.2665 226.738 49.2432C226.776 49.2149 226.82 49.1953 226.866 49.1856Z" fill="#263238"/>
<path d="M221.22 47.764C221.166 47.7529 221.119 47.7235 221.085 47.6807C221.064 47.654 221.048 47.6233 221.038 47.5903C221.029 47.5573 221.026 47.5228 221.03 47.4887C221.034 47.4547 221.045 47.4218 221.062 47.3921C221.08 47.3624 221.103 47.3364 221.13 47.3157C221.444 47.058 221.816 46.8788 222.213 46.7931C222.611 46.7073 223.023 46.7175 223.416 46.8226C223.481 46.8446 223.535 46.8911 223.566 46.9521C223.597 47.0131 223.603 47.0838 223.582 47.1492C223.557 47.211 223.509 47.2614 223.449 47.2909C223.389 47.3203 223.32 47.3269 223.256 47.3093C222.943 47.2295 222.615 47.225 222.3 47.2963C221.985 47.3675 221.692 47.5124 221.444 47.7191C221.414 47.746 221.377 47.7644 221.338 47.7723C221.298 47.7802 221.257 47.7773 221.22 47.764Z" fill="#263238"/>
<path d="M241.889 115.622L236.389 115.584L239.232 121.898C239.232 121.898 243.926 120.892 243.669 118.344L241.889 115.622Z" fill="#FFC3BD"/>
<path d="M233.59 119.919L234.493 121.699C234.736 122.173 235.147 122.54 235.645 122.727C236.144 122.914 236.694 122.908 237.189 122.711L239.232 121.898L236.388 115.584L234.205 117.249C233.805 117.551 233.524 117.984 233.412 118.472C233.299 118.96 233.362 119.473 233.59 119.919Z" fill="#FFC3BD"/>
<path d="M200.017 110.973C199.352 110.966 198.704 110.766 198.152 110.396C197.6 110.026 197.168 109.503 196.909 108.891C196.65 108.279 196.575 107.605 196.694 106.951C196.812 106.297 197.119 105.692 197.577 105.21C200.023 102.687 202.232 100.728 204.179 99.0178C208.879 94.8748 210.499 93.2547 210.345 90.149C210.115 88.2327 209.708 86.342 209.129 84.501C207.726 79.3462 206.138 73.5126 208.86 68.8316C210.32 66.315 212.798 64.5925 216.23 63.7088C217.098 63.5028 218.012 63.6454 218.776 64.1059C219.54 64.5664 220.092 65.308 220.315 66.1716C220.538 67.0351 220.414 67.9517 219.969 68.7244C219.523 69.4971 218.793 70.0644 217.934 70.3044C215.52 70.9448 214.937 71.9245 214.732 72.2575C213.451 74.4667 214.687 79.0388 215.686 82.7081C216.409 85.0219 216.894 87.4035 217.133 89.816C217.453 96.3796 213.579 99.7991 208.668 104.128C206.817 105.767 204.71 107.624 202.443 109.955C202.127 110.278 201.75 110.535 201.333 110.709C200.916 110.884 200.469 110.974 200.017 110.973Z" fill="#0DB02B"/>
<path d="M207.489 62.0502L212.817 60.6863L211.575 67.4996C211.575 67.4996 206.779 67.6469 206.42 65.1175L207.489 62.0502Z" fill="#FFC3BD"/>
<path d="M216.557 64.2979L216.147 66.0781C216.021 66.6218 215.697 67.0988 215.237 67.4152C214.777 67.7316 214.216 67.8645 213.663 67.7878L211.575 67.4996L212.817 60.6863L215.264 61.7429C215.744 61.9499 216.137 62.319 216.373 62.786C216.61 63.2529 216.675 63.7879 216.557 64.2979Z" fill="#FFC3BD"/>
<path d="M198.112 99.7687L197.967 99.6238C197.319 98.9763 196.269 98.9764 195.621 99.6242L176.738 118.514C176.091 119.162 176.091 120.212 176.739 120.859L176.884 121.004C177.532 121.652 178.582 121.652 179.229 121.004L198.112 102.114C198.76 101.466 198.76 100.416 198.112 99.7687Z" fill="#263238"/>
<path d="M207.953 109.597L207.808 109.453C207.161 108.805 206.111 108.805 205.463 109.453L186.577 128.339C185.929 128.986 185.929 130.037 186.577 130.684L186.722 130.829C187.369 131.477 188.419 131.477 189.067 130.829L207.953 111.943C208.601 111.295 208.601 110.245 207.953 109.597Z" fill="#263238"/>
<path d="M182.696 106.8L196.004 93.4923C196.43 93.066 196.937 92.7278 197.494 92.497C198.051 92.2663 198.648 92.1475 199.251 92.1475C199.854 92.1475 200.451 92.2663 201.008 92.497C201.565 92.7278 202.071 93.066 202.497 93.4923L214.13 105.125C214.556 105.551 214.894 106.057 215.125 106.614C215.356 107.171 215.474 107.768 215.474 108.371C215.474 108.974 215.356 109.571 215.125 110.128C214.894 110.685 214.556 111.191 214.13 111.618L200.822 124.926L182.696 106.8Z" fill="#0DB02B"/>
<path opacity="0.7" d="M182.696 106.8L196.004 93.4923C196.43 93.066 196.937 92.7278 197.494 92.497C198.051 92.2663 198.648 92.1475 199.251 92.1475C199.854 92.1475 200.451 92.2663 201.008 92.497C201.565 92.7278 202.071 93.066 202.497 93.4923L214.13 105.125C214.556 105.551 214.894 106.057 215.125 106.614C215.356 107.171 215.474 107.768 215.474 108.371C215.474 108.974 215.356 109.571 215.125 110.128C214.894 110.685 214.556 111.191 214.13 111.618L200.822 124.926L182.696 106.8Z" fill="white"/>
<path opacity="0.2" d="M187.286 102.175L182.676 106.779L200.804 124.907L205.408 120.297C205.225 119.761 204.921 119.274 204.518 118.875L188.708 103.097C188.312 102.683 187.826 102.367 187.286 102.175Z" fill="#0DB02B"/>
<path d="M181.899 104.457L181.568 104.788C180.163 106.193 180.163 108.472 181.568 109.877L197.71 126.019C199.116 127.425 201.394 127.425 202.8 126.019L203.13 125.689C204.536 124.283 204.536 122.005 203.13 120.599L186.988 104.457C185.583 103.052 183.304 103.052 181.899 104.457Z" fill="#0DB02B"/>
<path d="M160.662 44.844C167.219 44.844 172.534 39.5287 172.534 32.9719C172.534 26.4151 167.219 21.0997 160.662 21.0997C154.105 21.0997 148.79 26.4151 148.79 32.9719C148.79 39.5287 154.105 44.844 160.662 44.844Z" fill="#263238"/>
<path d="M160.662 43.0766C166.243 43.0766 170.767 38.5525 170.767 32.9718C170.767 27.3911 166.243 22.8671 160.662 22.8671C155.082 22.8671 150.558 27.3911 150.558 32.9718C150.558 38.5525 155.082 43.0766 160.662 43.0766Z" fill="white"/>
<path d="M167.494 30.7947H162.756L166.732 19.0314L153.829 35.1491H158.568L154.591 46.9123L167.494 30.7947Z" fill="#0DB02B"/>
<path d="M167.9 41.6183L169.312 40.2056L153.424 24.3169L152.011 25.7296L167.9 41.6183Z" fill="#263238"/>
</svg>
