<svg width="13" height="14" viewBox="0 0 13 14" fill="none" xmlns="http://www.w3.org/2000/svg">
<path d="M11.5 0.5H3.5C3.23478 0.5 2.98043 0.605357 2.79289 0.792893C2.60536 0.98043 2.5 1.23478 2.5 1.5V3H1.5C1.23478 3 0.98043 3.10536 0.792893 3.29289C0.605357 3.48043 0.5 3.73478 0.5 4V10C0.5 10.2652 0.605357 10.5196 0.792893 10.7071C0.98043 10.8946 1.23478 11 1.5 11H2.5V12.5C2.5 12.7652 2.60536 13.0196 2.79289 13.2071C2.98043 13.3946 3.23478 13.5 3.5 13.5H11.5C11.7652 13.5 12.0196 13.3946 12.2071 13.2071C12.3946 13.0196 12.5 12.7652 12.5 12.5V1.5C12.5 1.23478 12.3946 0.98043 12.2071 0.792893C12.0196 0.605357 11.7652 0.5 11.5 0.5ZM3.325 8.9C3.21891 8.82043 3.14878 8.70199 3.13003 8.57071C3.11127 8.43944 3.14543 8.30609 3.225 8.2L4.125 7L3.225 5.8C3.1856 5.74747 3.15694 5.6877 3.14064 5.62409C3.12435 5.56048 3.12074 5.49429 3.13003 5.42929C3.13931 5.36429 3.16131 5.30175 3.19476 5.24525C3.22822 5.18875 3.27247 5.1394 3.325 5.1C3.37753 5.0606 3.4373 5.03194 3.50091 5.01564C3.56452 4.99935 3.63071 4.99574 3.69571 5.00503C3.76071 5.01431 3.82325 5.03631 3.87975 5.06976C3.93625 5.10322 3.9856 5.14747 4.025 5.2L4.75 6.16875L5.475 5.2C5.55456 5.09391 5.67301 5.02378 5.80429 5.00503C5.93556 4.98627 6.06891 5.02043 6.175 5.1C6.28109 5.17956 6.35122 5.29801 6.36997 5.42929C6.38873 5.56056 6.35457 5.69391 6.275 5.8L5.375 7L6.275 8.2C6.35457 8.30609 6.38873 8.43944 6.36997 8.57071C6.35122 8.70199 6.28109 8.82043 6.175 8.9C6.08912 8.96617 5.98341 9.00141 5.875 9C5.79738 9 5.72082 8.98193 5.65139 8.94721C5.58197 8.9125 5.52157 8.8621 5.475 8.8L4.75 7.83125L4.025 8.8C3.97843 8.8621 3.91803 8.9125 3.84861 8.94721C3.77918 8.98193 3.70262 9 3.625 9C3.51659 9.00141 3.41088 8.96617 3.325 8.9ZM7 12.5H3.5V11H7V12.5ZM7 3H3.5V1.5H7V3ZM11.5 12.5H8V11C8.26522 11 8.51957 10.8946 8.70711 10.7071C8.89464 10.5196 9 10.2652 9 10V9.5H11.5V12.5ZM11.5 8.5H9V5.5H11.5V8.5ZM11.5 4.5H9V4C9 3.73478 8.89464 3.48043 8.70711 3.29289C8.51957 3.10536 8.26522 3 8 3V1.5H11.5V4.5Z" fill="white"/>
</svg>
