<svg width="50" height="50" viewBox="0 0 50 50" fill="none" xmlns="http://www.w3.org/2000/svg">
<rect x="1" y="1" width="48" height="48" rx="24" fill="#FF0000" fill-opacity="0.3" stroke="#FF0000" stroke-width="2"/>
<rect x="9.75586" y="9.75586" width="30.4878" height="30.4878" rx="15.2439" fill="#FF0000"/>
<g clip-path="url(#clip0_153_12775)">
<path fill-rule="evenodd" clip-rule="evenodd" d="M32.1095 18.6952C32.5 19.0858 32.5 19.7189 32.1095 20.1095L20.1095 32.1095C19.7189 32.5 19.0858 32.5 18.6952 32.1095C18.3047 31.7189 18.3047 31.0858 18.6952 30.6952L30.6952 18.6952C31.0858 18.3047 31.7189 18.3047 32.1095 18.6952Z" fill="white"/>
<path fill-rule="evenodd" clip-rule="evenodd" d="M18.6952 18.6952C19.0858 18.3047 19.7189 18.3047 20.1095 18.6952L32.1095 30.6952C32.5 31.0858 32.5 31.7189 32.1095 32.1095C31.7189 32.5 31.0858 32.5 30.6952 32.1095L18.6952 20.1095C18.3047 19.7189 18.3047 19.0858 18.6952 18.6952Z" fill="white"/>
</g>
<defs>
<clipPath id="clip0_153_12775">
<rect width="12.8049" height="12.8049" fill="white" transform="translate(19 19)"/>
</clipPath>
</defs>
</svg>
